<svg xmlns="http://www.w3.org/2000/svg" viewBox="0 0 512 512">
  <rect width="512" height="512" rx="96" fill="#0a0a0f"/>
  <circle cx="256" cy="256" r="188" fill="#f5c842" opacity="0.1"/>
  <path fill="#f5c842" d="M256 78c68 0 124 56 124 124 0 105-72 194-124 232-52-38-124-127-124-232 0-68 56-124 124-124Z"/>
  <path fill="#0a0a0f" d="M183 192c22-34 50-49 73-49s51 15 73 49c-10 31-38 54-73 54s-63-23-73-54Z"/>
  <path fill="#f5c842" d="M205 198c14-17 31-26 51-26s37 9 51 26c-13 15-30 23-51 23s-38-8-51-23Z"/>
  <path stroke="#0a0a0f" stroke-linecap="round" stroke-width="24" d="M256 236v156M213 279l-48 67M299 279l48 67M221 333l-72 30M291 333l72 30"/>
  <path fill="#0a0a0f" d="M180 155c32-38 61-57 76-57s44 19 76 57c-23-18-48-27-76-27s-53 9-76 27Z"/>
</svg>
